<svg xmlns="http://www.w3.org/2000/svg" width="2057.782" height="784.54" viewBox="0 0 2057.782 784.54">
  <g id="Group_1801" data-name="Group 1801" transform="translate(25.52 -2609.692)" opacity="0.09">
    <g id="Group_1799" data-name="Group 1799" transform="translate(-25.52 2609.692)">
      <rect id="Rectangle_96" data-name="Rectangle 96" width="84.82" height="38.73" rx="9.92" transform="translate(449.211)" fill="rgba(242,73,247,0.59)"/>
      <rect id="Rectangle_97" data-name="Rectangle 97" width="84.82" height="38.73" rx="9.92" transform="translate(299.467)" fill="rgba(242,73,247,0.59)"/>
      <rect id="Rectangle_98" data-name="Rectangle 98" width="84.82" height="38.73" rx="9.92" transform="translate(149.723)" fill="rgba(242,73,247,0.59)"/>
      <rect id="Rectangle_99" data-name="Rectangle 99" width="84.82" height="38.73" rx="9.92" fill="rgba(242,73,247,0.59)"/>
      <rect id="Rectangle_100" data-name="Rectangle 100" width="84.82" height="38.73" rx="9.92" transform="translate(449.211 92.248)" fill="rgba(242,73,247,0.59)"/>
      <rect id="Rectangle_101" data-name="Rectangle 101" width="84.82" height="38.73" rx="9.92" transform="translate(299.467 92.248)" fill="rgba(242,73,247,0.59)"/>
      <rect id="Rectangle_102" data-name="Rectangle 102" width="84.82" height="38.73" rx="9.92" transform="translate(149.723 92.248)" fill="rgba(242,73,247,0.59)"/>
      <rect id="Rectangle_105" data-name="Rectangle 105" width="84.82" height="38.73" rx="11.8" transform="translate(299.467 184.219)" fill="rgba(242,73,247,0.59)"/>
      <rect id="Rectangle_106" data-name="Rectangle 106" width="84.82" height="38.73" rx="11.8" transform="translate(149.723 184.219)" fill="rgba(242,73,247,0.59)"/>
      <rect id="Rectangle_107" data-name="Rectangle 107" width="84.82" height="38.73" rx="11.8" transform="translate(0 184.219)" fill="rgba(242,73,247,0.59)"/>
      <rect id="Rectangle_108" data-name="Rectangle 108" width="84.82" height="38.73" rx="11.8" transform="translate(449.211 372.44)" fill="rgba(242,73,247,0.59)"/>
    </g>
    <g id="Group_1800" data-name="Group 1800" transform="translate(-25.52 2621.332)">
      <rect id="Rectangle_109" data-name="Rectangle 109" width="84.82" height="38.73" rx="11.8" transform="translate(744.766 119.934)" fill="rgba(242,73,247,0.59)"/>
      <rect id="Rectangle_111" data-name="Rectangle 111" width="84.82" height="38.73" rx="11.8" transform="translate(1269.633 214.139)" fill="rgba(242,73,247,0.59)"/>
      <rect id="Rectangle_112" data-name="Rectangle 112" width="84.82" height="38.73" rx="11.8" transform="translate(1269.633 356.022)" fill="rgba(242,73,247,0.59)"/>
      <rect id="Rectangle_114" data-name="Rectangle 114" width="84.82" height="38.73" rx="11.8" transform="translate(507.832 269.945)" fill="rgba(242,73,247,0.59)"/>
      <rect id="Rectangle_117" data-name="Rectangle 117" width="84.82" height="38.73" rx="6.76" transform="translate(0 166.934)" fill="rgba(242,73,247,0.59)"/>
      <rect id="Rectangle_119" data-name="Rectangle 119" width="84.82" height="38.73" rx="11.56" transform="translate(1015.7 261.485)" fill="rgba(242,73,247,0.59)"/>
      <rect id="Rectangle_120" data-name="Rectangle 120" width="84.82" height="38.73" rx="11.56" transform="translate(761.766 261.485)" fill="rgba(242,73,247,0.59)"/>
      <rect id="Rectangle_121" data-name="Rectangle 121" width="84.82" height="38.73" rx="11.56" transform="translate(361.832 280.85)" fill="rgba(242,73,247,0.59)"/>
      <rect id="Rectangle_122" data-name="Rectangle 122" width="84.82" height="38.73" rx="11.56" transform="translate(84.82 261.485)" fill="rgba(242,73,247,0.59)"/>
      <rect id="Rectangle_123" data-name="Rectangle 123" width="84.82" height="38.73" rx="11.56" transform="translate(1269.633 308.675)" fill="rgba(242,73,247,0.59)"/>
      <rect id="Rectangle_124" data-name="Rectangle 124" width="84.82" height="38.73" rx="11.56" transform="translate(1523.567 308.675)" fill="rgba(242,73,247,0.59)"/>
      <rect id="Rectangle_125" data-name="Rectangle 125" width="84.82" height="38.73" rx="11.56" transform="translate(1586.764)" fill="rgba(242,73,247,0.59)"/>
      <rect id="Rectangle_126" data-name="Rectangle 126" width="84.82" height="38.73" rx="11.56" transform="translate(1895.962 38.73)" fill="rgba(242,73,247,0.59)"/>
      <rect id="Rectangle_127" data-name="Rectangle 127" width="84.82" height="38.73" rx="11.56" transform="translate(1972.962 233.548)" fill="rgba(242,73,247,0.59)"/>
      <rect id="Rectangle_128" data-name="Rectangle 128" width="84.82" height="38.73" rx="11.56" transform="translate(1930.552 283.612)" fill="rgba(242,73,247,0.59)"/>
      <rect id="Rectangle_129" data-name="Rectangle 129" width="84.82" height="38.73" rx="11.56" transform="translate(1015.7 308.675)" fill="rgba(242,73,247,0.59)"/>
      <rect id="Rectangle_130" data-name="Rectangle 130" width="84.82" height="38.73" rx="11.56" transform="translate(761.766 308.675)" fill="rgba(242,73,247,0.59)"/>
      <rect id="Rectangle_136" data-name="Rectangle 136" width="84.82" height="38.73" rx="11.2" transform="translate(1015.7 403.212)" fill="rgba(242,73,247,0.59)"/>
      <rect id="Rectangle_137" data-name="Rectangle 137" width="84.82" height="38.73" rx="11.2" transform="translate(1015.7 450.481)" fill="rgba(242,73,247,0.59)"/>
      <rect id="Rectangle_146" data-name="Rectangle 146" width="84.82" height="38.73" rx="11.2" transform="translate(507.832 497.75)" fill="rgba(242,73,247,0.59)"/>
      <rect id="Rectangle_147" data-name="Rectangle 147" width="84.82" height="38.73" rx="11.2" transform="translate(84.82 497.75)" fill="rgba(242,73,247,0.59)"/>
      <rect id="Rectangle_149" data-name="Rectangle 149" width="84.82" height="38.73" rx="8.15" transform="translate(1015.7 545.096)" fill="rgba(242,73,247,0.59)"/>
      <rect id="Rectangle_150" data-name="Rectangle 150" width="84.82" height="38.73" rx="8.15" transform="translate(761.766 545.096)" fill="rgba(242,73,247,0.59)"/>
      <rect id="Rectangle_151" data-name="Rectangle 151" width="84.82" height="38.73" rx="8.15" transform="translate(507.832 545.096)" fill="rgba(242,73,247,0.59)"/>
      <rect id="Rectangle_153" data-name="Rectangle 153" width="84.82" height="38.73" rx="8.15" transform="translate(1015.7 592.287)" fill="rgba(242,73,247,0.59)"/>
      <rect id="Rectangle_154" data-name="Rectangle 154" width="84.82" height="38.73" rx="8.15" transform="translate(761.766 592.287)" fill="rgba(242,73,247,0.59)"/>
      <rect id="Rectangle_155" data-name="Rectangle 155" width="84.82" height="38.73" rx="8.15" transform="translate(507.832 592.287)" fill="rgba(242,73,247,0.59)"/>
      <rect id="Rectangle_156" data-name="Rectangle 156" width="84.82" height="38.73" rx="8.15" transform="translate(84.82 592.287)" fill="rgba(242,73,247,0.59)"/>
      <rect id="Rectangle_157" data-name="Rectangle 157" width="84.82" height="38.73" rx="8.15" transform="translate(1269.633 661.11)" fill="rgba(242,73,247,0.59)"/>
      <rect id="Rectangle_158" data-name="Rectangle 158" width="84.82" height="38.73" rx="8.15" transform="translate(1015.7 661.11)" fill="rgba(242,73,247,0.59)"/>
      <rect id="Rectangle_159" data-name="Rectangle 159" width="84.82" height="38.73" rx="8.15" transform="translate(761.766 661.11)" fill="rgba(242,73,247,0.59)"/>
      <rect id="Rectangle_160" data-name="Rectangle 160" width="84.82" height="38.73" rx="8.15" transform="translate(507.832 661.11)" fill="rgba(242,73,247,0.59)"/>
      <rect id="Rectangle_162" data-name="Rectangle 162" width="84.82" height="38.73" rx="8.15" transform="translate(1269.633 697.58)" fill="rgba(242,73,247,0.59)"/>
      <rect id="Rectangle_163" data-name="Rectangle 163" width="84.82" height="38.73" rx="6.76" transform="translate(1015.7 697.58)" fill="rgba(242,73,247,0.59)"/>
      <rect id="Rectangle_164" data-name="Rectangle 164" width="84.82" height="38.73" rx="8.15" transform="translate(761.766 697.58)" fill="rgba(242,73,247,0.59)"/>
      <rect id="Rectangle_167" data-name="Rectangle 167" width="84.82" height="38.73" rx="8.15" transform="translate(1269.633 734.17)" fill="rgba(242,73,247,0.59)"/>
      <rect id="Rectangle_168" data-name="Rectangle 168" width="84.82" height="38.73" rx="8.15" transform="translate(1015.7 734.17)" fill="rgba(242,73,247,0.59)"/>
      <rect id="Rectangle_169" data-name="Rectangle 169" width="84.82" height="38.73" rx="8.15" transform="translate(761.766 734.17)" fill="rgba(242,73,247,0.59)"/>
      <rect id="Rectangle_170" data-name="Rectangle 170" width="84.82" height="38.73" rx="6.59" transform="translate(507.832 734.17)" fill="rgba(242,73,247,0.59)"/>
      <rect id="Rectangle_171" data-name="Rectangle 171" width="84.82" height="38.73" rx="6.59" transform="translate(84.82 734.17)" fill="rgba(242,73,247,0.59)"/>
      <rect id="Rectangle_172" data-name="Rectangle 172" width="84.82" height="38.73" rx="8.15" transform="translate(0 661.11)" fill="rgba(242,73,247,0.59)"/>
    </g>
  </g>
</svg>
