<svg xmlns="http://www.w3.org/2000/svg" width="1807.908" height="748.474" viewBox="0 0 1807.908 748.474">
  <g id="whiteB" transform="translate(25.52 -2540.332)" opacity="0.15">
    <g id="Group_1799" data-name="Group 1799" transform="translate(-25.52 2609.692)">
      <rect id="Rectangle_96" data-name="Rectangle 96" width="75.753" height="38.73" rx="9.92" transform="translate(401.189)" fill="#fff"/>
      <rect id="Rectangle_97" data-name="Rectangle 97" width="75.753" height="38.73" rx="9.92" transform="translate(267.453)" fill="#fff"/>
      <rect id="Rectangle_98" data-name="Rectangle 98" width="75.753" height="38.73" rx="9.92" transform="translate(133.717)" fill="#fff"/>
      <rect id="Rectangle_99" data-name="Rectangle 99" width="75.753" height="38.73" rx="9.92" fill="#fff"/>
      <rect id="Rectangle_100" data-name="Rectangle 100" width="75.753" height="38.73" rx="9.92" transform="translate(401.189 92.248)" fill="#fff"/>
      <rect id="Rectangle_101" data-name="Rectangle 101" width="75.753" height="38.73" rx="9.92" transform="translate(267.453 92.248)" fill="#fff"/>
      <rect id="Rectangle_102" data-name="Rectangle 102" width="75.753" height="38.73" rx="9.92" transform="translate(133.717 92.248)" fill="#fff"/>
      <rect id="Rectangle_105" data-name="Rectangle 105" width="75.753" height="38.73" rx="11.8" transform="translate(267.453 184.219)" fill="#fff"/>
      <rect id="Rectangle_106" data-name="Rectangle 106" width="75.753" height="38.73" rx="11.8" transform="translate(133.717 184.219)" fill="#fff"/>
      <rect id="Rectangle_108" data-name="Rectangle 108" width="75.753" height="38.73" rx="11.8" transform="translate(401.189 372.44)" fill="#fff"/>
    </g>
    <g id="Group_1848" data-name="Group 1848" transform="translate(1251.48 2590.266)">
      <rect id="Rectangle_96-2" data-name="Rectangle 96" width="75.753" height="38.73" rx="9.92" transform="translate(389.206 88)" fill="#fff"/>
      <rect id="Rectangle_97-2" data-name="Rectangle 97" width="75.753" height="38.73" rx="9.92" transform="translate(249.684 68.635)" fill="#fff"/>
      <rect id="Rectangle_98-2" data-name="Rectangle 98" width="75.753" height="38.73" rx="9.92" transform="translate(133.717)" fill="#fff"/>
      <rect id="Rectangle_99-2" data-name="Rectangle 99" width="75.753" height="38.73" rx="9.92" fill="#fff"/>
      <rect id="Rectangle_100-2" data-name="Rectangle 100" width="75.753" height="38.73" rx="9.92" transform="translate(325.437 305.308)" fill="#fff"/>
      <rect id="Rectangle_101-2" data-name="Rectangle 101" width="75.753" height="38.73" rx="9.92" transform="translate(267.453 163.426)" fill="#fff"/>
      <rect id="Rectangle_102-2" data-name="Rectangle 102" width="75.753" height="38.73" rx="9.92" transform="translate(75.752 163.426)" fill="#fff"/>
      <rect id="Rectangle_105-2" data-name="Rectangle 105" width="75.753" height="38.73" rx="11.8" transform="translate(313.453 470.359)" fill="#fff"/>
      <rect id="Rectangle_106-2" data-name="Rectangle 106" width="75.753" height="38.73" rx="11.8" transform="translate(150.717 525.359)" fill="#fff"/>
      <rect id="Rectangle_107" data-name="Rectangle 107" width="75.753" height="38.73" rx="11.8" transform="translate(26 403.359)" fill="#fff"/>
      <rect id="Rectangle_108-2" data-name="Rectangle 108" width="75.753" height="38.73" rx="11.8" transform="translate(401.189 659.81)" fill="#fff"/>
    </g>
    <g id="Group_1800" data-name="Group 1800" transform="translate(-25.52 2540.332)">
      <rect id="Rectangle_109" data-name="Rectangle 109" width="75.753" height="38.73" rx="11.8" transform="translate(665.149 174.947)" fill="#fff"/>
      <rect id="Rectangle_111" data-name="Rectangle 111" width="75.753" height="38.73" rx="11.8" transform="translate(1133.906 256.968)" fill="#fff"/>
      <rect id="Rectangle_112" data-name="Rectangle 112" width="75.753" height="38.73" rx="11.8" transform="translate(1126.906 479.605)" fill="#fff"/>
      <rect id="Rectangle_114" data-name="Rectangle 114" width="75.753" height="38.73" rx="11.8" transform="translate(453.544 305.557)" fill="#fff"/>
      <rect id="Rectangle_117" data-name="Rectangle 117" width="75.753" height="38.73" rx="6.76" transform="translate(0 215.869)" fill="#fff"/>
      <rect id="Rectangle_119" data-name="Rectangle 119" width="75.753" height="38.73" rx="11.56" transform="translate(944.995 126.485)" fill="#fff"/>
      <rect id="Rectangle_120" data-name="Rectangle 120" width="75.753" height="38.73" rx="11.56" transform="translate(680.331 298.191)" fill="#fff"/>
      <rect id="Rectangle_121" data-name="Rectangle 121" width="75.753" height="38.73" rx="11.56" transform="translate(222.152 384.229)" fill="#fff"/>
      <rect id="Rectangle_122" data-name="Rectangle 122" width="75.753" height="38.73" rx="11.56" transform="translate(54.753 339.279)" fill="#fff"/>
      <rect id="Rectangle_123" data-name="Rectangle 123" width="75.753" height="38.73" rx="11.56" transform="translate(1133.906 339.278)" fill="#fff"/>
      <rect id="Rectangle_124" data-name="Rectangle 124" width="75.753" height="38.73" rx="11.56" transform="translate(1330.694 367.369)" fill="#fff"/>
      <rect id="Rectangle_125" data-name="Rectangle 125" width="75.753" height="38.73" rx="11.56" transform="translate(1441.135 0)" fill="#fff"/>
      <rect id="Rectangle_126" data-name="Rectangle 126" width="75.753" height="38.73" rx="11.56" transform="translate(1694.279 28.73)" fill="#fff"/>
      <rect id="Rectangle_127" data-name="Rectangle 127" width="75.753" height="38.73" rx="11.56" transform="translate(1732.155 134.56)" fill="#fff"/>
      <rect id="Rectangle_128" data-name="Rectangle 128" width="75.753" height="38.73" rx="11.56" transform="translate(1724.171 384.229)" fill="#fff"/>
      <rect id="Rectangle_129" data-name="Rectangle 129" width="75.753" height="38.73" rx="11.56" transform="translate(907.119 339.278)" fill="#fff"/>
      <rect id="Rectangle_130" data-name="Rectangle 130" width="75.753" height="38.73" rx="11.56" transform="translate(680.331 401.09)" fill="#fff"/>
      <rect id="Rectangle_136" data-name="Rectangle 136" width="75.753" height="38.73" rx="11.2" transform="translate(1046.995 401.09)" fill="#fff"/>
      <rect id="Rectangle_137" data-name="Rectangle 137" width="75.753" height="38.73" rx="11.2" transform="translate(907.119 462.745)" fill="#fff"/>
      <rect id="Rectangle_146" data-name="Rectangle 146" width="75.753" height="38.73" rx="11.2" transform="translate(453.544 503.9)" fill="#fff"/>
      <rect id="Rectangle_147" data-name="Rectangle 147" width="75.753" height="38.73" rx="11.2" transform="translate(37.876 462.745)" fill="#fff"/>
      <rect id="Rectangle_149" data-name="Rectangle 149" width="75.753" height="38.73" rx="8.15" transform="translate(878.995 215.812)" fill="#fff"/>
      <rect id="Rectangle_150" data-name="Rectangle 150" width="75.753" height="38.73" rx="8.15" transform="translate(680.331 545.122)" fill="#fff"/>
      <rect id="Rectangle_151" data-name="Rectangle 151" width="75.753" height="38.73" rx="8.15" transform="translate(285.275 561.983)" fill="#fff"/>
      <rect id="Rectangle_153" data-name="Rectangle 153" width="75.753" height="38.73" rx="8.15" transform="translate(907.119 586.21)" fill="#fff"/>
      <rect id="Rectangle_154" data-name="Rectangle 154" width="75.753" height="38.73" rx="8.15" transform="translate(680.331 614.414)" fill="#fff"/>
      <rect id="Rectangle_155" data-name="Rectangle 155" width="75.753" height="38.73" rx="8.15" transform="translate(453.544 586.21)" fill="#fff"/>
      <rect id="Rectangle_156" data-name="Rectangle 156" width="75.753" height="38.73" rx="8.15" transform="translate(75.753 586.21)" fill="#fff"/>
      <rect id="Rectangle_157" data-name="Rectangle 157" width="75.753" height="38.73" rx="8.15" transform="translate(1133.906 593.022)" fill="#fff"/>
      <rect id="Rectangle_158" data-name="Rectangle 158" width="75.753" height="38.73" rx="8.15" transform="translate(1009.119 634.424)" fill="#fff"/>
      <rect id="Rectangle_159" data-name="Rectangle 159" width="75.753" height="38.73" rx="8.15" transform="translate(740.901 59.384)" fill="#fff"/>
      <rect id="Rectangle_160" data-name="Rectangle 160" width="75.753" height="38.73" rx="8.15" transform="translate(307.544 673.154)" fill="#fff"/>
      <rect id="Rectangle_162" data-name="Rectangle 162" width="75.753" height="38.73" rx="8.15" transform="translate(1360.694 675.414)" fill="#fff"/>
      <rect id="Rectangle_163" data-name="Rectangle 163" width="75.753" height="38.73" rx="6.76" transform="translate(841.119 634.424)" fill="#fff"/>
      <rect id="Rectangle_164" data-name="Rectangle 164" width="75.753" height="38.73" rx="8.15" transform="translate(1068.331 38.73)" fill="#fff"/>
      <rect id="Rectangle_167" data-name="Rectangle 167" width="75.753" height="38.73" rx="8.15" transform="translate(1133.906 709.744)" fill="#fff"/>
      <rect id="Rectangle_168" data-name="Rectangle 168" width="75.753" height="38.73" rx="8.15" transform="translate(907.119 709.744)" fill="#fff"/>
      <rect id="Rectangle_169" data-name="Rectangle 169" width="75.753" height="38.73" rx="8.15" transform="translate(680.331 709.744)" fill="#fff"/>
      <rect id="Rectangle_170" data-name="Rectangle 170" width="75.753" height="38.73" rx="6.59" transform="translate(453.544 709.744)" fill="#fff"/>
      <rect id="Rectangle_171" data-name="Rectangle 171" width="75.753" height="38.73" rx="6.59" transform="translate(75.753 709.744)" fill="#fff"/>
      <rect id="Rectangle_172" data-name="Rectangle 172" width="75.753" height="38.73" rx="8.15" transform="translate(0 636.684)" fill="#fff"/>
    </g>
  </g>
</svg>
